<svg id="visual" viewBox="0 0 960 540" width="960" height="540" xmlns="http://www.w3.org/2000/svg" xmlns:xlink="http://www.w3.org/1999/xlink" version="1.1"><rect x="0" y="0" width="960" height="540" fill="#ffffff"></rect><defs><linearGradient id="grad1_0" x1="43.8%" y1="0%" x2="100%" y2="100%"><stop offset="14.444444444444446%" stop-color="#3c98fa" stop-opacity="1"></stop><stop offset="85.55555555555554%" stop-color="#3c98fa" stop-opacity="1"></stop></linearGradient></defs><defs><linearGradient id="grad1_1" x1="43.8%" y1="0%" x2="100%" y2="100%"><stop offset="14.444444444444446%" stop-color="#3c98fa" stop-opacity="1"></stop><stop offset="85.55555555555554%" stop-color="#b0cafe" stop-opacity="1"></stop></linearGradient></defs><defs><linearGradient id="grad1_2" x1="43.8%" y1="0%" x2="100%" y2="100%"><stop offset="14.444444444444446%" stop-color="#ffffff" stop-opacity="1"></stop><stop offset="85.55555555555554%" stop-color="#b0cafe" stop-opacity="1"></stop></linearGradient></defs><defs><linearGradient id="grad2_0" x1="0%" y1="0%" x2="56.3%" y2="100%"><stop offset="14.444444444444446%" stop-color="#3c98fa" stop-opacity="1"></stop><stop offset="85.55555555555554%" stop-color="#3c98fa" stop-opacity="1"></stop></linearGradient></defs><defs><linearGradient id="grad2_1" x1="0%" y1="0%" x2="56.3%" y2="100%"><stop offset="14.444444444444446%" stop-color="#b0cafe" stop-opacity="1"></stop><stop offset="85.55555555555554%" stop-color="#3c98fa" stop-opacity="1"></stop></linearGradient></defs><defs><linearGradient id="grad2_2" x1="0%" y1="0%" x2="56.3%" y2="100%"><stop offset="14.444444444444446%" stop-color="#b0cafe" stop-opacity="1"></stop><stop offset="85.55555555555554%" stop-color="#ffffff" stop-opacity="1"></stop></linearGradient></defs><g transform="translate(960, 0)"><path d="M0 486C-43.9 432.4 -87.7 378.7 -150.4 363.1C-213.1 347.5 -294.6 369.9 -343.7 343.7C-392.7 317.4 -409.4 242.6 -427.8 177.2C-446.1 111.8 -466 55.9 -486 0L0 0Z" fill="#d9e4ff"></path><path d="M0 324C-29.2 288.2 -58.5 252.5 -100.3 242.1C-142 231.6 -196.4 246.6 -229.1 229.1C-261.8 211.6 -273 161.7 -285.2 118.1C-297.4 74.5 -310.7 37.3 -324 0L0 0Z" fill="#81b0fc"></path><path d="M0 162C-14.6 144.1 -29.2 126.2 -50.1 121C-71 115.8 -98.2 123.3 -114.6 114.6C-130.9 105.8 -136.5 80.9 -142.6 59.1C-148.7 37.3 -155.3 18.6 -162 0L0 0Z" fill="#3c98fa"></path></g><g transform="translate(0, 540)"><path d="M0 -486C46 -437.8 92.1 -389.5 154.6 -373.2C217.1 -357 296.1 -372.6 343.7 -343.7C391.2 -314.7 407.4 -241.1 425.9 -176.4C444.4 -111.7 465.2 -55.9 486 0L0 0Z" fill="#d9e4ff"></path><path d="M0 -324C30.7 -291.8 61.4 -259.7 103.1 -248.8C144.7 -238 197.4 -248.4 229.1 -229.1C260.8 -209.8 271.6 -160.8 283.9 -117.6C296.3 -74.5 310.1 -37.2 324 0L0 0Z" fill="#81b0fc"></path><path d="M0 -162C15.3 -145.9 30.7 -129.8 51.5 -124.4C72.4 -119 98.7 -124.2 114.6 -114.6C130.4 -104.9 135.8 -80.4 142 -58.8C148.1 -37.2 155.1 -18.6 162 0L0 0Z" fill="#3c98fa"></path></g></svg>